<?xml version="1.0" encoding="UTF-8"?>
<svg width="1440" height="800" viewBox="0 0 1440 800" fill="none" xmlns="http://www.w3.org/2000/svg">
  <!-- Gradient arka plan -->
  <defs>
    <linearGradient id="heroGrad" x1="0%" y1="0%" x2="100%" y2="100%">
      <stop offset="0%" style="stop-color:#4F46E5;stop-opacity:0.3" />
      <stop offset="50%" style="stop-color:#7C3AED;stop-opacity:0.3" />
      <stop offset="100%" style="stop-color:#EC4899;stop-opacity:0.3" />
    </linearGradient>
    <radialGradient id="heroSpot" cx="50%" cy="0%" r="100%" fx="50%" fy="0%">
      <stop offset="0%" style="stop-color:#8B5CF6;stop-opacity:0.4" />
      <stop offset="100%" style="stop-color:#EC4899;stop-opacity:0.1" />
    </radialGradient>
  </defs>
  
  <!-- Ana arka plan -->
  <rect width="1440" height="800" fill="url(#heroGrad)"/>
  
  <!-- Büyük renkli daireler -->
  <circle cx="0" cy="400" r="600" fill="#4F46E5" fill-opacity="0.2"/>
  <circle cx="1440" cy="200" r="500" fill="#7C3AED" fill-opacity="0.2"/>
  <circle cx="720" cy="0" r="400" fill="#EC4899" fill-opacity="0.2"/>
  
  <!-- Dekoratif şekiller -->
  <circle cx="200" cy="600" r="100" fill="#60A5FA" fill-opacity="0.3"/>
  <circle cx="1200" cy="300" r="150" fill="#818CF8" fill-opacity="0.3"/>
  <circle cx="600" cy="400" r="120" fill="#F472B6" fill-opacity="0.3"/>
  
  <!-- Bağlantı noktaları ve çizgiler -->
  <g stroke="#6366F1" stroke-width="2" stroke-opacity="0.3">
    <line x1="0" y1="200" x2="1440" y2="600"/>
    <line x1="0" y1="400" x2="1440" y2="200"/>
    <line x1="0" y1="600" x2="1440" y2="400"/>
  </g>
  
  <!-- Noktalar -->
  <g fill="#6366F1" fill-opacity="0.5">
    <circle cx="200" cy="200" r="4"/>
    <circle cx="400" cy="300" r="4"/>
    <circle cx="600" cy="400" r="4"/>
    <circle cx="800" cy="300" r="4"/>
    <circle cx="1000" cy="200" r="4"/>
    <circle cx="1200" cy="400" r="4"/>
  </g>
  
  <!-- Gradient overlay -->
  <rect width="1440" height="800" fill="url(#heroSpot)"/>
</svg>